<svg id="Layer_1" data-name="Layer 1" xmlns="http://www.w3.org/2000/svg" xmlns:xlink="http://www.w3.org/1999/xlink" viewBox="0 0 96.67 99.73"><defs><style>.cls-1{fill:none;}.cls-2{clip-path:url(#clip-path);}.cls-3{fill:#038442;}.cls-4{fill:#ac2126;}.cls-5{fill:#00af4c;}.cls-6{fill:#e42b2c;}.cls-7{fill:#f0efef;}.cls-8{fill:#cccccb;}.cls-9{fill:#fff;}.cls-10{fill:#f2f1f1;}</style><clipPath id="clip-path" transform="translate(-5.67 -4.14)"><rect class="cls-1" x="5.67" y="4.14" width="96.67" height="99.72"/></clipPath></defs><g class="cls-2"><g id="Group_218" data-name="Group 218"><path id="Path_352" data-name="Path 352" class="cls-3" d="M94.49,46.57a3.57,3.57,0,0,1,7,0v40a3.57,3.57,0,0,1-7,0Z" transform="translate(-5.67 -4.14)"/><path id="Path_353" data-name="Path 353" class="cls-3" d="M51.6,79.37a33.73,33.73,0,0,1-8.67,6.92,21.66,21.66,0,0,1-11,2.89,26.26,26.26,0,0,1-18.55-7.42,25.51,25.51,0,0,1-5.67-8.29A26,26,0,0,1,5.67,63a26.38,26.38,0,0,1,2-10.3,25.79,25.79,0,0,1,14-14.14,26.67,26.67,0,0,1,10.54-2.07,24.24,24.24,0,0,1,10,2.13A27.52,27.52,0,0,1,56.23,52.74,25,25,0,0,1,58.36,63V86a3.38,3.38,0,0,1-6.76,0ZM51.6,63a19.57,19.57,0,0,0-12-18.11A19.15,19.15,0,0,0,32,43.36a18.82,18.82,0,0,0-7.58,1.53,19.73,19.73,0,0,0-6.21,4.19A19.52,19.52,0,0,0,14,55.35,19.18,19.18,0,0,0,12.43,63,18.78,18.78,0,0,0,14,70.58,19.53,19.53,0,0,0,39.39,81.06,19.69,19.69,0,0,0,49.8,70.81,22.14,22.14,0,0,0,51.6,63" transform="translate(-5.67 -4.14)"/><path id="Path_354" data-name="Path 354" class="cls-4" d="M47.94,62.82A15.93,15.93,0,1,0,32,78.76h0A15.93,15.93,0,0,0,47.94,62.84v0" transform="translate(-5.67 -4.14)"/><path id="Path_355" data-name="Path 355" class="cls-5" d="M50.51,44.35a27.76,27.76,0,0,0-8.34-5.73,24.27,24.27,0,0,0-10-2.13,26.49,26.49,0,0,0-10.54,2.07,26,26,0,0,0-8.39,5.67,27,27,0,0,0-2.31,2.7,45.16,45.16,0,0,0,4.22,6,19.44,19.44,0,0,1,9.21-8.09A18.85,18.85,0,0,1,32,43.36,19.58,19.58,0,0,1,51.6,63a22,22,0,0,1-.92,5.41c2.44.06,5,0,7.69-.2V63a25.16,25.16,0,0,0-2.13-10.26,27.38,27.38,0,0,0-5.73-8.39" transform="translate(-5.67 -4.14)"/><path id="Path_356" data-name="Path 356" class="cls-5" d="M98,40.28a4.39,4.39,0,0,0,4.38-4.39,4.45,4.45,0,0,0-1.28-3.09A4.38,4.38,0,0,0,94.86,39,4.28,4.28,0,0,0,98,40.28" transform="translate(-5.67 -4.14)"/><path id="Path_357" data-name="Path 357" class="cls-6" d="M32,46.9a15.92,15.92,0,0,0-14.29,8.87C24.1,62.16,33.43,67.17,47,68.22A16,16,0,0,0,32,46.9h0" transform="translate(-5.67 -4.14)"/><path id="Path_358" data-name="Path 358" class="cls-5" d="M101.51,59.13V46.57a3.57,3.57,0,0,0-7,0v15.9a53.68,53.68,0,0,0,7-3.34" transform="translate(-5.67 -4.14)"/><path id="Path_359" data-name="Path 359" class="cls-7" d="M19.52,97.65H18.09V96.33h1.43Zm0,6.07H18.09V98.3h1.43Z" transform="translate(-5.67 -4.14)"/><path id="Path_360" data-name="Path 360" class="cls-7" d="M25.78,103.72H24.36v-3.29c0-.4,0-1.07-.94-1.07a1.11,1.11,0,0,0-1.12,1.09.86.86,0,0,0,0,.16v3.11H20.88V98.3h1.36v.79h0a1.74,1.74,0,0,1,1.63-.93,1.72,1.72,0,0,1,1.88,1.56,2.18,2.18,0,0,1,0,.25Z" transform="translate(-5.67 -4.14)"/><path id="Path_361" data-name="Path 361" class="cls-7" d="M32,103.72H30.58v-3.29c0-.4,0-1.07-.93-1.07a1.11,1.11,0,0,0-1.13,1.09.86.86,0,0,0,0,.16v3.11H27.11V98.3h1.36v.79h0a1.75,1.75,0,0,1,1.63-.93A1.73,1.73,0,0,1,32,99.73a1,1,0,0,1,0,.24Z" transform="translate(-5.67 -4.14)"/><path id="Path_362" data-name="Path 362" class="cls-7" d="M35.78,103.86a2.85,2.85,0,1,1,2.76-2.76,2.86,2.86,0,0,1-2.76,2.76m0-4.5c-1.1,0-1.3,1-1.3,1.65s.2,1.65,1.3,1.65,1.31-1,1.31-1.65-.21-1.65-1.31-1.65" transform="translate(-5.67 -4.14)"/><path id="Path_363" data-name="Path 363" class="cls-7" d="M42.26,103.72h-1.5L38.82,98.3h1.59l1.12,4h0l1.16-4h1.52Z" transform="translate(-5.67 -4.14)"/><path id="Path_364" data-name="Path 364" class="cls-7" d="M49.2,102.66c0,.64.14.78.32.84v.21H48a2.7,2.7,0,0,1-.14-.64,2.18,2.18,0,0,1-1.75.79,1.52,1.52,0,0,1-1.64-1.4,1.09,1.09,0,0,1,0-.18A1.67,1.67,0,0,1,46,100.54h0l1.29-.18c.21,0,.5-.13.5-.44,0-.59-.58-.62-.94-.62a.75.75,0,0,0-.87.64s0,.07,0,.11H44.62c.16-1.66,1.32-1.89,2.42-1.89.76,0,2.16.23,2.16,1.56Zm-1.39-1.58a2.23,2.23,0,0,1-1,.29c-.52.09-1,.23-1,.82a.62.62,0,0,0,.59.65h.07a1.18,1.18,0,0,0,1.28-1.07Z" transform="translate(-5.67 -4.14)"/><path id="Path_365" data-name="Path 365" class="cls-7" d="M52.07,98.3H53v1h-.89v2.94c0,.32,0,.44.59.44l.3,0v1.08H52.1c-1.23,0-1.46-.46-1.46-1.16V99.32h-.73v-1h.73V96.83h1.43Z" transform="translate(-5.67 -4.14)"/><path id="Path_366" data-name="Path 366" class="cls-7" d="M58.51,102.13a2.34,2.34,0,0,1-2.37,1.73c-1.53,0-2.71-.73-2.71-3a2.53,2.53,0,0,1,2.29-2.73H56c1.08,0,2.55.5,2.55,3v.25H54.86c0,.42.13,1.32,1.28,1.32a.9.9,0,0,0,.91-.58Zm-1.4-1.66a1.09,1.09,0,0,0-1-1.14H56c-.67,0-1,.42-1.11,1.14Z" transform="translate(-5.67 -4.14)"/><path id="Path_367" data-name="Path 367" class="cls-7" d="M64,103.72H62.58v-4.4H61.8v-1h.78v-.44a1.39,1.39,0,0,1,1.59-1.55c.42,0,.62,0,.74,0v1.15h-.4c-.49,0-.5.15-.5.61v.21h.92v1H64Z" transform="translate(-5.67 -4.14)"/><path id="Path_368" data-name="Path 368" class="cls-7" d="M68,103.86a2.85,2.85,0,1,1,2.77-2.93V101a2.63,2.63,0,0,1-2.4,2.85,2.28,2.28,0,0,1-.37,0m0-4.5c-1.1,0-1.3,1-1.3,1.65s.2,1.65,1.3,1.65,1.31-1,1.31-1.65S69.1,99.36,68,99.36" transform="translate(-5.67 -4.14)"/><path id="Path_369" data-name="Path 369" class="cls-7" d="M71.75,98.3h1.38v.94h0a1.58,1.58,0,0,1,1.49-1.08h.28v1.45a2.88,2.88,0,0,0-.41,0,1.15,1.15,0,0,0-1.31,1,1.13,1.13,0,0,0,0,.32v2.83H71.75Z" transform="translate(-5.67 -4.14)"/><path id="Path_370" data-name="Path 370" class="cls-7" d="M83,102.66c0,.64.14.78.31.84v.21H81.74a2.69,2.69,0,0,1-.13-.64,2.19,2.19,0,0,1-1.75.79,1.54,1.54,0,0,1-1.65-1.41v-.17a1.66,1.66,0,0,1,1.57-1.74h0l1.28-.18c.23,0,.5-.13.5-.44,0-.59-.57-.62-.94-.62a.76.76,0,0,0-.86.65.31.31,0,0,0,0,.1H78.38c.17-1.66,1.32-1.89,2.43-1.89.76,0,2.16.23,2.16,1.56Zm-1.4-1.58a2,2,0,0,1-1,.29c-.53.09-1,.23-1,.82a.62.62,0,0,0,.59.65h.08a1.18,1.18,0,0,0,1.27-1.07Z" transform="translate(-5.67 -4.14)"/><rect id="Rectangle_159" data-name="Rectangle 159" class="cls-7" x="78.61" y="92.27" width="1.43" height="7.31"/><rect id="Rectangle_160" data-name="Rectangle 160" class="cls-7" x="81.44" y="92.27" width="1.42" height="7.31"/><path id="Path_371" data-name="Path 371" class="cls-3" d="M88.18,65.89a16.65,16.65,0,0,0,.72-1.62c-1.87.56-5.27,1.58-8.72,2.46-.8.87-1.79,1.85-3,3L62.52,83.65l0,0a4.08,4.08,0,0,0-1.39,2.5v.07a2.65,2.65,0,0,0,.52,1.67,3.88,3.88,0,0,0,1,.89,3.35,3.35,0,0,0,1.12.41h0a6.34,6.34,0,0,0,.75.07H86.79a2.94,2.94,0,0,0,2.09-.81,2.81,2.81,0,0,0,.89-2.1,3,3,0,0,0-3-3H70.94L83.06,72.15a23.25,23.25,0,0,0,5.12-6.26" transform="translate(-5.67 -4.14)"/><path id="Path_372" data-name="Path 372" class="cls-5" d="M88.77,53.84a14,14,0,0,0-7.16-7.52,12.65,12.65,0,0,0-5.31-1.14,14.24,14.24,0,0,0-5.69,1.1A15.29,15.29,0,0,0,66.36,49a12.08,12.08,0,0,0-2.74,3.57,8.16,8.16,0,0,0-1,3.64,2.85,2.85,0,0,0,2.76,2.92h.15a2.4,2.4,0,0,0,2-.92,5.37,5.37,0,0,0,.85-1.71v0a7.19,7.19,0,0,1,2.73-4.14A7.79,7.79,0,0,1,76,50.8a8.49,8.49,0,0,1,3.27.62,7.1,7.1,0,0,1,2.52,1.73,8,8,0,0,1,1.66,2.6A8.7,8.7,0,0,1,84,59c0,.19,0,.37,0,.55v.14c0,.14,0,.27,0,.41v.14l-.06.41,0,.11c0,.18-.06.34-.09.5a6.52,6.52,0,0,1-.46,1.28c-.09.19-.2.39-.31.59l-.18.3a18.22,18.22,0,0,1-2.08,2.71l-.56.61c3.45-.89,6.85-1.9,8.72-2.47a14.07,14.07,0,0,0,.77-3,11.5,11.5,0,0,0,.12-1.18c0-.22,0-.44,0-.65v-.18a14,14,0,0,0-1.06-5.42" transform="translate(-5.67 -4.14)"/><path id="Path_373" data-name="Path 373" class="cls-7" d="M30.72,28.72s0-.91,1.45-.2c.37.19.89.46,1.49.75A11.71,11.71,0,0,0,38,30.5a8.36,8.36,0,0,0,2.54-.23c3.74-.95,4.5-2.4,8.55-2.45a11.2,11.2,0,0,1,5.07,1.48s-.48-1.62-4.5-2.27a23.69,23.69,0,0,0-5.45-.29h-.29a12.34,12.34,0,0,1-2.19-.07c-2.3-.32-5.42-1.42-6.16-2.67s-.63-2.6.37-3.08a1.21,1.21,0,0,1,.32-.11,2.72,2.72,0,0,1,2.39,1,8.58,8.58,0,0,0,6.45,2.57,9.67,9.67,0,0,0,3.06-.65,8.91,8.91,0,0,1-7.51-3.88h0c-.14-.2-.31-.44-.44-.67a12.59,12.59,0,0,1-.85-1.68s-.81-1.83-1.67-3.93h0c-.3-.73-.6-1.5-.87-2.24,0,0-.06-.17-.19-.47l-8.9-2.95a.44.44,0,0,1-.05.15V8a.79.79,0,0,1-.21.24.7.7,0,0,1-.28.12h0a.66.66,0,0,1-.28,0,.7.7,0,0,1-.55-.81l.06-.18h0a.72.72,0,0,1,.25-.27l-.12-.08.11.07h0a.75.75,0,0,1,.51-.1.71.71,0,0,1,.55.82h0l8.88,3c-.91-2-5.07-9.7-16.1-5.34l.13,0,0,0h0a7,7,0,0,1,.91.31A3.48,3.48,0,0,1,23.82,9a34,34,0,0,1,0,4.28,24.26,24.26,0,0,1-.61,4.34,12.65,12.65,0,0,0,0,5.51,12.23,12.23,0,0,0,6,8.09h0l1,.54a22.19,22.19,0,0,0,5.49,1.9c.51.12,1.07.23,1.63.32a18.29,18.29,0,0,1-1.79-.66c-2.05-.86-5.12-2.51-4.81-4.58M29.34,15.16l-.41.53-.42.54Z" transform="translate(-5.67 -4.14)"/><path id="Path_374" data-name="Path 374" class="cls-8" d="M48.35,30.4a8.17,8.17,0,0,0-2.11.53,18.91,18.91,0,0,1-4.73,1.21,10,10,0,0,1-3.85-.27,15.18,15.18,0,0,0,2.44,1.25,11.59,11.59,0,0,0,6.9.76s6.63-1.9,9.79.45a9.86,9.86,0,0,0-8.44-3.94" transform="translate(-5.67 -4.14)"/><path id="Path_375" data-name="Path 375" class="cls-9" d="M37.7,74.06l-2-3.82,1.94-1-4.56-3-.28,5.42,1.95-1,1.94,3.81Z" transform="translate(-5.67 -4.14)"/><path id="Path_376" data-name="Path 376" class="cls-10" d="M25.91,64.67v1.24H21.85V62.73a1.54,1.54,0,0,1,0-.43.84.84,0,0,1,.16-.33,4.16,4.16,0,0,1,.42-.42L24,60.21a2.37,2.37,0,0,0,.28-.27,1.33,1.33,0,0,0,.14-.19.48.48,0,0,0,.05-.17c0-.06,0-.13,0-.23V57.44c0-.4-.22-.6-.65-.6h-.1c-.43,0-.65.2-.65.6V58.5H21.58V57.36a1.59,1.59,0,0,1,1.36-1.78,1.36,1.36,0,0,1,.45,0h.79A1.57,1.57,0,0,1,26,56.91a1.29,1.29,0,0,1,0,.44v2.47a1.44,1.44,0,0,1-.09.51,1.63,1.63,0,0,1-.45.53l-1.67,1.46a1.86,1.86,0,0,0-.36.38.46.46,0,0,0-.05.2c0,.07,0,.15,0,.27v1.5Z" transform="translate(-5.67 -4.14)"/><path id="Path_377" data-name="Path 377" class="cls-10" d="M29.33,65.91a1.59,1.59,0,0,1-1.81-1.32,1.7,1.7,0,0,1,0-.45V57.36a1.58,1.58,0,0,1,1.36-1.78,1.36,1.36,0,0,1,.45,0h1.05a1.58,1.58,0,0,1,1.8,1.32,1.7,1.7,0,0,1,0,.45v6.78a1.56,1.56,0,0,1-1.36,1.77,1.69,1.69,0,0,1-.45,0Zm.3-9.07a.53.53,0,0,0-.6.45v6.76c0,.41.23.61.68.61h.38a.54.54,0,0,0,.6-.46.38.38,0,0,0,0-.15V57.44c0-.4-.23-.6-.68-.6Z" transform="translate(-5.67 -4.14)"/><path id="Path_378" data-name="Path 378" class="cls-10" d="M38.44,63.49h-.87v2.42H36.09V63.49H33.45l-.32-1.16,2.93-6.73h1.52v6.73h.86Zm-2.18-5.15h-.08l-1.44,4h1.4Z" transform="translate(-5.67 -4.14)"/><path id="Path_379" data-name="Path 379" class="cls-10" d="M39.26,57.88l-.35-1a3.15,3.15,0,0,0,1-.55,3.42,3.42,0,0,0,.64-.78h.15l1,.49v9.82H40.2V57.62Z" transform="translate(-5.67 -4.14)"/><path id="Path_380" data-name="Path 380" class="cls-8" d="M30.72,28.73s0-.9,1.42-.22,4.71,2.7,8.35,1.76,4.67-2.4,8.53-2.44a11.32,11.32,0,0,1,5.13,1.48S53.78,27.7,49.6,27a23.17,23.17,0,0,0-5.39-.27c.51,0,1,0,1.67,0l-1.31.49c-4,1.4-8.69,1.73-11.94-1.45-3.86-3.77-3-10-3.67-14.85A5.37,5.37,0,0,0,27.63,8a.68.68,0,0,1-.75.39.69.69,0,0,1-.55-.81.72.72,0,0,1,.31-.45,11.23,11.23,0,0,0-5.93-1.59l-.21,0A3.83,3.83,0,0,1,23.79,9a30.62,30.62,0,0,1-.57,8.65c-1,4-.51,13.94,14.1,16.36,0,0-7.07-2.12-6.6-5.23" transform="translate(-5.67 -4.14)"/></g></g></svg>